HIERARCHY
ROOT Hips
{
	OFFSET -3.958830 18.904000 13.208200
	CHANNELS 6 Xposition Yposition Zposition Zrotation Yrotation Xrotation 
	JOINT LHipJoint
	{
		OFFSET 0.000000 0.000000 0.000000
		CHANNELS 3 Zrotation Yrotation Xrotation
		JOINT LeftUpLeg
		{
			OFFSET 1.800000 -1.400000 0.085000
			CHANNELS 3 Zrotation Yrotation Xrotation
			JOINT LeftLeg
			{
				OFFSET 2.215000 -6.000000 0.000000
				CHANNELS 3 Zrotation Yrotation Xrotation
				JOINT LeftFoot
				{
					OFFSET 2.500000 -6.900000 0.000000
					CHANNELS 3 Zrotation Yrotation Xrotation
					JOINT LeftToeBase
					{
						OFFSET 0.200000 -0.500000 1.950000
						CHANNELS 3 Zrotation Yrotation Xrotation
						End Site
						{
							OFFSET 0.000000 0.000000 0.000000
						}
					}
				}
			}
		}
	}
	JOINT RHipJoint
	{
		OFFSET 0.000000 0.000000 0.000000
		CHANNELS 3 Zrotation Yrotation Xrotation
		JOINT RightUpLeg
		{
			OFFSET -1.800000 -1.400000 0.085000
			CHANNELS 3 Zrotation Yrotation Xrotation
			JOINT RightLeg
			{
				OFFSET -2.215000 -6.000000 0.000000
				CHANNELS 3 Zrotation Yrotation Xrotation
				JOINT RightFoot
				{
					OFFSET -2.500000 -6.900000 0.000000
					CHANNELS 3 Zrotation Yrotation Xrotation
					JOINT RightToeBase
					{
						OFFSET -0.200000 -0.500000 1.950000
						CHANNELS 3 Zrotation Yrotation Xrotation
						End Site
						{
							OFFSET 0.000000 0.000000 0.000000
						}
					}
				}
			}
		}
	}
	JOINT LowerBack
	{
		OFFSET 0.000000 0.000000 0.000000
		CHANNELS 3 Zrotation Yrotation Xrotation
		JOINT Spine
		{
			OFFSET -0.087000 1.940000 -0.288900
			CHANNELS 3 Zrotation Yrotation Xrotation
			JOINT Spine1
			{
				OFFSET 0.000000 1.950000 0.060000
				CHANNELS 3 Zrotation Yrotation Xrotation
				JOINT Neck
				{
					OFFSET 0.000000 0.000000 0.000000
					CHANNELS 3 Zrotation Yrotation Xrotation
					JOINT Neck1
					{
						OFFSET 0.000000 1.600000 0.340000
						CHANNELS 3 Zrotation Yrotation Xrotation
						JOINT Head
						{
							OFFSET 0.000000 1.667000 -0.240000
							CHANNELS 3 Zrotation Yrotation Xrotation
							End Site
							{
								OFFSET 0.000000 0.000000 0.000000
							}
						}
					}
				}
				JOINT LeftShoulder
				{
					OFFSET 0.000000 0.000000 0.000000
					CHANNELS 3 Zrotation Yrotation Xrotation
					JOINT LeftArm
					{
						OFFSET 2.700000 1.550000 -0.730000
						CHANNELS 3 Zrotation Yrotation Xrotation
						JOINT LeftForeArm
						{
							OFFSET 5.450000 0.000000 0.000000
							CHANNELS 3 Zrotation Yrotation Xrotation
							JOINT LeftHand
							{
								OFFSET 3.450000 0.000000 0.000000
								CHANNELS 3 Zrotation Yrotation Xrotation
								JOINT LeftHandIndex1
								{
									OFFSET 0.750000 0.000000 0.000000
									CHANNELS 3 Zrotation Yrotation Xrotation
									End Site
									{
										OFFSET 0.000000 0.000000 0.000000
									}
								}
							}
						}
					}
				}
				JOINT RightShoulder
				{
					OFFSET 0.000000 0.000000 0.000000
					CHANNELS 3 Zrotation Yrotation Xrotation
					JOINT RightArm
					{
						OFFSET -2.700000 1.550000 -0.730000
						CHANNELS 3 Zrotation Yrotation Xrotation
						JOINT RightForeArm
						{
							OFFSET -5.450000 0.000000 0.000000
							CHANNELS 3 Zrotation Yrotation Xrotation
							JOINT RightHand
							{
								OFFSET -3.450000 0.000000 0.000000
								CHANNELS 3 Zrotation Yrotation Xrotation
								JOINT RightHandIndex1
								{
									OFFSET -0.750000 0.000000 0.000000
									CHANNELS 3 Zrotation Yrotation Xrotation
									End Site
									{
										OFFSET 0.000000 0.000000 0.000000
									}
								}
							}
						}
					}
				}
			}
		}
	}
}
MOTION
Frames: 7
Frame Time: 0.016667
1.310200 17.859550 -2.830740 2.258345 -14.295018 11.585060 -14.854119 12.508680 2.671114 6.024478 -1.610776 -14.238291 -4.588876 3.076341 3.216386 -1.531286 4.914274 3.736996 0.030110 -0.752580 -0.259710 18.705041 -10.966595 3.067523 1.814868 0.166172 -5.982414 8.690033 -5.503796 4.785032 -0.575591 -4.588640 2.936043 -0.015490 1.884460 1.122380 -4.543121 -0.135843 -6.853848 16.252027 3.163740 2.440483 -9.961911 4.925485 5.369212 2.503234 -4.514872 -9.145391 -7.007558 5.809027 19.617649 -7.313940 1.559720 -6.359160 -16.385127 -8.447812 2.793940 6.721176 -1.694168 2.252894 6.474583 6.711542 -2.488626 -5.209790 2.261326 0.957620 1.114220 -0.332930 0.758220 11.358668 11.870444 6.207951 2.878869 9.280635 -2.656916 -14.521182 13.396257 -1.629409 1.419274 -1.343424 -0.875700 0.884190 0.567490 -0.014210 
1.371460 17.815570 -2.843510 2.260798 -15.062688 11.947728 -14.872326 12.507703 2.603742 7.011071 -1.576894 -14.211134 -3.925063 2.992905 3.121679 -1.555070 4.953402 3.736225 0.036210 -0.708680 -0.284680 18.696003 -10.955881 3.035907 1.300773 0.207183 -6.051032 8.809928 -5.453504 4.572989 -0.540937 -4.660981 2.921162 0.046560 1.943150 1.112550 -4.508330 -0.138409 -6.754183 15.884092 3.008251 1.625018 -9.773511 4.604445 5.877538 2.260246 -4.714587 -8.894121 -7.163718 6.204702 18.115515 -7.380190 1.589870 -5.527580 -15.807018 -8.164548 2.682863 6.705956 -2.197687 2.348689 6.656094 6.239335 -2.483428 -5.267975 2.282205 0.878250 1.181140 -0.387860 0.771180 11.378205 11.594079 5.885911 2.211797 9.533693 -2.464319 -14.623203 14.040119 -1.817480 1.380640 -1.397292 -0.889930 0.910840 0.567420 0.005760 
1.426690 17.778900 -2.858330 2.204636 -15.445919 12.141761 -14.900507 12.559939 2.580574 8.136319 -1.514097 -14.314836 -4.070888 3.118586 3.392140 -1.530899 5.064084 3.709129 0.022730 -0.713750 -0.329870 18.664651 -10.912421 2.995792 0.858973 0.348759 -6.338066 9.188610 -5.529973 5.066599 -0.506015 -4.716976 2.918172 0.061020 1.998700 1.121130 -4.422779 -0.302043 -6.708532 15.398625 2.678826 1.234616 -9.519623 4.214929 6.338894 2.122722 -4.759899 -9.127390 -7.213944 6.599598 17.211427 -7.109140 1.657360 -4.299030 -15.179253 -8.668665 2.844288 7.180634 -3.193484 2.255066 5.677958 8.322205 -2.591337 -5.355455 2.298337 0.815000 1.233760 -0.438050 0.792250 11.195384 11.926595 6.121361 1.476556 8.782262 -2.276265 -14.077761 14.268406 -1.803761 1.359771 -1.441479 -0.890070 0.907450 0.574930 0.027930 
1.487800 17.762050 -2.875230 1.383269 -16.433937 12.373238 -14.892312 12.602066 2.563964 9.634650 -1.408720 -14.118982 -4.149404 3.242963 3.622755 -1.552869 5.224995 3.657073 0.021600 -0.733940 -0.332490 18.661399 -10.922762 2.960888 1.054166 0.623399 -7.024506 9.331386 -5.723710 6.686227 -0.497324 -4.721246 2.900322 0.062880 2.037270 1.144470 -4.423841 -0.329978 -6.683415 16.086783 2.358205 1.196658 -9.699571 3.961304 6.519029 2.194422 -4.854548 -9.216095 -7.387331 7.027400 16.829543 -7.019200 1.788880 -4.397450 -14.870684 -8.859106 2.899350 7.431963 -3.683815 2.198347 5.272227 10.313961 -2.710925 -5.419610 2.275468 0.834730 1.254240 -0.448840 0.798400 10.789721 12.014563 6.176465 0.015971 8.581366 -1.935631 -11.914422 14.035171 -1.485286 1.343555 -1.419629 -0.910320 0.923810 0.595450 0.025120 
1.547920 17.756940 -2.899800 1.155192 -17.275859 12.204912 -14.887550 12.701795 2.586497 10.203865 -1.359551 -13.747870 -4.025750 3.281757 3.712088 -1.536611 5.271602 3.621644 0.034140 -0.727350 -0.333580 18.641017 -10.938131 2.905333 0.670249 1.054437 -8.121291 9.478154 -5.973327 9.004445 -0.495008 -4.685601 2.883313 0.054640 2.016310 1.155760 -4.392235 -0.467095 -6.683295 16.130831 1.870320 1.671402 -9.751011 3.629383 6.363962 2.022913 -5.135591 -9.330455 -7.980110 7.468822 17.093702 -6.359320 1.744870 -5.045770 -14.469144 -9.039067 2.946680 7.363500 -4.309387 2.043082 4.760332 12.272015 -2.800335 -5.432165 2.279870 0.857340 1.221450 -0.426570 0.795040 10.730914 12.314175 6.257294 -0.219172 8.842683 -2.152912 -12.911657 12.992506 -1.541276 1.369755 -1.411274 -0.890630 0.915330 0.605860 0.028270 
1.603220 17.778380 -2.917250 0.917205 -17.392590 11.762754 -14.881385 12.859024 2.579930 10.619619 -1.272804 -13.478502 -3.772806 3.400328 4.544554 -1.470684 5.242785 3.607326 0.040160 -0.693190 -0.353040 18.616891 -10.943936 2.876722 0.481031 1.534760 -9.278982 9.829819 -6.341492 11.764828 -0.505031 -4.689734 2.885907 0.036170 1.968670 1.150570 -4.353286 -0.691137 -6.699276 16.335465 0.937375 2.424314 -9.942950 2.874034 6.228503 1.981288 -5.262585 -9.627426 -8.386046 7.913025 17.615321 -5.913970 2.097060 -5.664940 -14.254260 -9.494538 3.269989 7.587264 -3.962729 2.014748 3.434062 12.151701 -2.912033 -5.369467 2.289032 0.862330 1.181250 -0.382690 0.801330 10.593118 12.695889 6.409830 0.512396 8.730594 -2.449641 -13.972031 13.646207 -1.634942 1.382343 -1.398605 -0.844620 0.891370 0.585400 0.046650 
1.665130 17.798320 -2.919840 0.484410 -17.067665 11.544202 -14.886097 12.963308 2.551730 11.009965 -1.254715 -13.393910 -3.541858 3.486300 5.438204 -1.390900 5.198008 3.595574 0.120320 -0.561510 -0.328940 18.593794 -10.927507 2.860271 0.160689 2.208747 -10.920611 10.754668 -6.880731 14.894373 -0.549876 -4.824195 2.813221 0.076820 1.918060 1.187870 -4.310564 -0.844534 -6.690426 16.671592 0.054361 2.838849 -9.987651 2.088161 6.429924 2.032313 -5.197639 -9.808369 -8.311223 8.375407 17.074210 -5.701660 2.516020 -6.094590 -13.933863 -9.732528 3.369882 6.581995 -4.782598 1.920520 4.697039 11.705641 -2.669129 -5.340464 2.374992 0.809820 1.168380 -0.329650 0.835980 10.222754 12.656684 6.542406 1.340194 7.903606 -2.444610 -14.598976 14.667781 -1.815220 1.387237 -1.473179 -0.751930 0.834690 0.515070 0.085850 
